<svg width="126" height="51" viewBox="0 0 126 51" fill="none" xmlns="http://www.w3.org/2000/svg">
<path d="M49.0198 19.18H53.4398V22.16H45.0798V8H49.0198V19.18Z" fill="#251D58"/>
<path d="M58.7936 8V16.08C58.7936 16.88 58.9669 17.5 59.3136 17.94C59.6736 18.3667 60.2136 18.58 60.9336 18.58C61.6536 18.58 62.1936 18.36 62.5536 17.92C62.9269 17.48 63.1136 16.8667 63.1136 16.08V8H67.0336V16.08C67.0336 17.4133 66.7603 18.5467 66.2136 19.48C65.6803 20.4133 64.9469 21.12 64.0136 21.6C63.0802 22.0667 62.0269 22.3 60.8536 22.3C59.6803 22.3 58.6403 22.0667 57.7336 21.6C56.8403 21.1333 56.1403 20.4333 55.6336 19.5C55.1269 18.5667 54.8736 17.4267 54.8736 16.08V8H58.7936Z" fill="#251D58"/>
<path d="M77.9437 22.16L75.1637 18.14L72.8037 22.16H68.3237L72.9037 14.88L68.1437 8H72.8037L75.5037 11.9L77.7837 8H82.2837L77.7437 15.14L82.6037 22.16H77.9437Z" fill="#251D58"/>
<path d="M87.6426 8V16.08C87.6426 16.88 87.816 17.5 88.1626 17.94C88.5226 18.3667 89.0626 18.58 89.7826 18.58C90.5026 18.58 91.0426 18.36 91.4026 17.92C91.776 17.48 91.9626 16.8667 91.9626 16.08V8H95.8826V16.08C95.8826 17.4133 95.6093 18.5467 95.0626 19.48C94.5293 20.4133 93.796 21.12 92.8626 21.6C91.9293 22.0667 90.876 22.3 89.7026 22.3C88.5293 22.3 87.4893 22.0667 86.5826 21.6C85.6893 21.1333 84.9893 20.4333 84.4826 19.5C83.976 18.5667 83.7226 17.4267 83.7226 16.08V8H87.6426Z" fill="#251D58"/>
<path d="M105.193 22.16L102.333 16.94H101.933V22.16H97.9928V8H104.213C105.346 8 106.306 8.2 107.093 8.6C107.893 8.98667 108.493 9.52667 108.893 10.22C109.293 10.9133 109.493 11.6933 109.493 12.56C109.493 13.5467 109.219 14.4067 108.673 15.14C108.126 15.86 107.339 16.3667 106.313 16.66L109.533 22.16H105.193ZM101.933 14.3H103.873C104.966 14.3 105.513 13.8067 105.513 12.82C105.513 12.3533 105.373 11.9867 105.093 11.72C104.826 11.4533 104.419 11.32 103.873 11.32H101.933V14.3Z" fill="#251D58"/>
<path d="M124.009 8L119.009 17.66V22.16H115.089V17.66L110.089 8H114.589L117.089 13.4L119.569 8H124.009Z" fill="#251D58"/>
<path d="M47.2799 40.432H51.0719V42.16H45.0239V30.864H47.2799V40.432Z" fill="#251D58"/>
<path d="M60.7746 30.864V42.16H58.5186V30.864H60.7746Z" fill="#251D58"/>
<path d="M70.5034 30.864L73.5274 39.808L76.5674 30.864H78.9834L74.9834 42.16H72.0874L68.0874 30.864H70.5034Z" fill="#251D58"/>
<path d="M88.5607 30.864V42.16H86.3047V30.864H88.5607Z" fill="#251D58"/>
<path d="M106.274 42.16H104.018L98.9616 34.48V42.16H96.7056V30.864H98.9616L104.018 38.608V30.864H106.274V42.16Z" fill="#251D58"/>
<path d="M119.651 30.752C121.027 30.752 122.168 31.0933 123.075 31.776C123.982 32.448 124.563 33.36 124.819 34.512H122.451C122.227 34 121.87 33.5946 121.379 33.296C120.899 32.9866 120.328 32.832 119.667 32.832C119.016 32.832 118.44 32.9813 117.939 33.28C117.438 33.5786 117.048 34.0053 116.771 34.56C116.494 35.1146 116.355 35.7653 116.355 36.512C116.355 37.696 116.67 38.6186 117.299 39.28C117.939 39.9413 118.808 40.272 119.907 40.272C120.718 40.272 121.411 40.032 121.987 39.552C122.574 39.072 122.952 38.4053 123.123 37.552H119.299V35.936H125.011V38.112C124.851 38.8586 124.536 39.5466 124.067 40.176C123.608 40.8053 123 41.312 122.243 41.696C121.496 42.0693 120.638 42.256 119.667 42.256C118.558 42.256 117.576 42.016 116.723 41.536C115.88 41.0453 115.224 40.368 114.755 39.504C114.296 38.6293 114.067 37.632 114.067 36.512C114.067 35.392 114.296 34.4 114.755 33.536C115.224 32.6613 115.88 31.9786 116.723 31.488C117.566 30.9973 118.542 30.752 119.651 30.752Z" fill="#251D58"/>
<g clip-path="url(#clip0_1_646)">
<path d="M31.1953 34.3422V23.8669L26.4375 21.0672V11.8518L19.1953 7.44236V0H16.8047V7.44236L9.5625 11.8518V21.0439L4.80469 23.8435V34.3188L0 37.1885V51H2.39062V38.5416L18 29.2562L33.6094 38.5416V51H36V37.1885L31.1953 34.3422ZM11.9531 13.1816L18 9.49543L24.0469 13.1816V19.6441L18 16.0746L11.9531 19.6441V13.1816ZM28.8047 32.919L26.4375 31.4959V26.8998L24.0469 25.5V30.0961L18 26.5032L11.9531 30.0961V25.5L9.5625 26.8998V31.4959L7.19531 32.919V25.1967L18 18.8275L28.8047 25.1967V32.919Z" fill="#251D58"/>
<path d="M31.1956 34.3422V23.8669L26.4377 21.0439V11.8518L19.1956 7.44236V0H18.0002V9.49543L24.0471 13.1816V19.6441L18.0002 16.0746V18.8275L28.8049 25.22V32.919L26.4377 31.4959V26.8998L24.0471 25.5V30.0961L18.0002 26.5032V29.2562L33.6096 38.5416V51H36.0002V37.1885L31.1956 34.3422Z" fill="#251D58"/>
<path d="M4.80469 51H7.19531V38.6116L4.80469 40.0114V51Z" fill="#251D58"/>
<path d="M14.4607 41.9712V51H16.8513V43.2077L17.9998 42.3911L19.1482 43.2077V51H21.5154V41.9712L17.9998 39.4982L14.4607 41.9712Z" fill="#251D58"/>
<path d="M24.0469 50.9999H26.4375V37.1884L24.0469 35.7653V50.9999Z" fill="#251D58"/>
<path d="M9.56274 50.9999H11.9534V35.7653L9.56274 37.1884V50.9999Z" fill="#251D58"/>
<path d="M28.8047 51H31.1953V40.0114L28.8047 38.6116V51Z" fill="#251D58"/>
<path d="M19.1487 51H21.5159V41.9712L18.0002 39.4982V42.3911L19.1487 43.2077V51Z" fill="#251D58"/>
<path d="M24.0469 50.9999H26.4375V37.1884L24.0469 35.7653V50.9999Z" fill="#251D58"/>
<path d="M28.8047 51H31.1953V40.0114L28.8047 38.6116V51Z" fill="#251D58"/>
</g>
<defs>
<clipPath id="clip0_1_646">
<rect width="36" height="51" fill="white"/>
</clipPath>
</defs>
</svg>
